<svg xmlns="http://www.w3.org/2000/svg" version="1.1" xmlns:xlink="http://www.w3.org/1999/xlink" xmlns:svgjs="http://svgjs.dev/svgjs" width="100%" height="100%" viewBox="0 0 1000 600"><rect width="1000" height="600" x="0" y="0" fill="#ffffff"/><g><rect width="333.3333333333333" height="333.3333333333333" y="251.09326978502918" fill="#8aaae5" transform="matrix(0.5461590149439026,0,0,0.5461590149439027,0,71.83663318042258)" x="228.87106323242188"/><path d="M336.35230260386754 492.7599321423979L336.35230260386754 492.7599321423979Q314.8002478516056 492.7599321423979 299.44296819524783 483.6262404893671Q284.08568853889005 474.4925488363363 275.90282283081194 457.69462380883806Q267.6911442153111 440.89669878133975 267.6911442153111 417.644682491132L267.6911442153111 417.644682491132Q267.6911442153111 400.24168640775474 272.35883521780636 386.44030375222866Q277.02652622030155 372.6389210967027 285.84327589168146 362.98659711006127Q294.66002556306137 353.3342731234199 307.53939518105744 348.06151106504564Q320.38995189163074 342.7599360992486 336.35230260386754 342.7599360992486L336.35230260386754 342.7599360992486Q349.2316722218636 342.7599360992486 360.8432739132561 346.3903624345227Q372.4548756046486 350.02078876979675 380.95468329437756 357.0799510883852L380.95468329437756 357.0799510883852Q383.6630965921217 359.15448042282753 384.5851096296516 361.74764209088045Q385.5359355746043 364.34080375893336 384.8156128890341 366.73227507502656Q384.06647729604106 369.1237463911198 382.3088899432496 370.6796433919516Q380.5513025904582 372.2355403927833 378.07339255209655 372.2355403927833Q375.5666696063121 372.2355403927833 372.4548756046486 370.161011058341L372.4548756046486 370.161011058341Q364.99233258214076 364.1391134069737 356.06033128106964 361.22900975726986Q347.1571428874213 358.318906107566 336.7844962152097 358.318906107566L336.7844962152097 358.318906107566Q320.38995189163074 358.318906107566 308.9800405521979 365.26281679646326Q297.57012921276515 372.2355403927833 291.7499219133575 385.48947780727593Q285.9585275213727 398.77222812919143 285.9585275213727 417.644682491132L285.9585275213727 417.644682491132Q285.9585275213727 436.54594976049543 291.7499219133575 449.9151388046793Q297.57012921276515 463.2843278488632 308.9800405521979 470.25705144518327Q320.38995189163074 477.2009621340805 336.7844962152097 477.2009621340805L336.7844962152097 477.2009621340805Q346.95545253546163 477.2009621340805 356.06033128106964 474.17560685468544Q365.1940229341004 471.17906448271316 372.8870692159907 465.1571668313458L372.8870692159907 465.1571668313458Q375.9988632176542 463.0826374969035 378.47677325601586 463.19788912659476Q380.95468329437756 463.2843278488632 382.6258319249005 464.7537861274265Q384.2969805554235 466.194431498567 385.0173032409938 468.470651184969Q385.737625926564 470.7756837787938 385.0173032409938 473.2535938171555Q384.2969805554235 475.73150385551713 381.79025760963907 477.6043428379998L381.79025760963907 477.6043428379998Q373.0887595679504 485.0668858605076 361.3619062468667 488.9278154551642Q349.635052925783 492.7599321423979 336.35230260386754 492.7599321423979ZM421.20631496404326 492.3277385310558L421.20631496404326 492.3277385310558Q417.0572562951586 492.3277385310558 414.8962882384478 489.96508012238536Q412.7065072743143 487.5736088062921 412.7065072743143 483.4245501374074L412.7065072743143 483.4245501374074L412.7065072743143 353.3342731234199Q412.7065072743143 348.9835241025756 414.98272696071626 346.8225560458648Q417.25894664711825 344.63277508173127 421.4080053160029 344.63277508173127L421.4080053160029 344.63277508173127L470.59163828673974 344.63277508173127Q494.0165320214843 344.63277508173127 506.6942112875208 355.6393057172447Q519.3430776461344 366.61702344533535 519.3430776461344 386.9589360858393L519.3430776461344 386.9589360858393Q519.3430776461344 399.80949279641254 513.638121976418 409.2601264310943Q507.9331663067016 418.6819471583532 496.92663567118814 423.58014142023086Q485.94891794309746 428.4495227746858 470.59163828673974 428.4495227746858L470.59163828673974 428.4495227746858L472.66616762118207 425.74110947694163L476.8152262900667 425.74110947694163Q484.91165327587635 425.74110947694163 490.90473801982085 429.8901681458263Q496.92663567118814 434.03922681471096 501.91126865533425 443.17291846774174L501.91126865533425 443.17291846774174L521.820987684496 480.31275613574394Q523.492136315019 483.2228597854478 523.3768846853277 486.01771180546035Q523.2904459630593 488.8125638254729 521.4176069805767 490.5701511782643Q519.5447679980941 492.3277385310558 516.0295932925112 492.3277385310558L516.0295932925112 492.3277385310558Q512.4856056795056 492.3277385310558 510.2093859931036 490.68540280795554Q507.9331663067016 489.01425417743263 506.2620176761786 485.90246017576914L506.2620176761786 485.90246017576914L483.6438853492727 444.00849278300325Q478.889755624509 435.0764914819321 472.66616762118207 432.07994910995984Q466.4425796178551 429.0545938305648 456.2716232976031 429.0545938305648L456.2716232976031 429.0545938305648L429.7061226537722 429.0545938305648L429.7061226537722 483.4245501374074Q429.7061226537722 487.5736088062921 427.6315933193299 489.96508012238536Q425.5570639848876 492.3277385310558 421.20631496404326 492.3277385310558ZM429.7061226537722 358.7510997189082L429.7061226537722 415.5701531566897L468.08491534095526 415.5701531566897Q485.113343627836 415.5701531566897 493.8148416695247 408.4245521158328Q502.5451526186361 401.27895107497585 502.5451526186361 386.9589360858393L502.5451526186361 386.9589360858393Q502.5451526186361 373.042301800622 493.8148416695247 365.89670075976505Q485.113343627836 358.7510997189082 468.08491534095526 358.7510997189082L468.08491534095526 358.7510997189082L429.7061226537722 358.7510997189082Z " fill="#ffffff" transform="matrix(0.5461590149439026,0,0,0.5461590149439027,0,71.83663318042258)"/><path d="M714.1988983680277 492.7599321423979L714.1988983680277 492.7599321423979Q692.6468436157658 492.7599321423979 677.289563959408 483.6262404893671Q661.9322843030502 474.4925488363363 653.7494185949722 457.69462380883806Q645.5377399794713 440.89669878133975 645.5377399794713 417.644682491132L645.5377399794713 417.644682491132Q645.5377399794713 400.24168640775474 650.2054309819665 386.44030375222866Q654.8731219844617 372.6389210967027 663.6898716558417 362.98659711006127Q672.5066213272215 353.3342731234199 685.3859909452176 348.06151106504564Q698.2365476557909 342.7599360992486 714.1988983680277 342.7599360992486L714.1988983680277 342.7599360992486Q727.0782679860238 342.7599360992486 738.6898696774163 346.3903624345227Q750.3014713688087 350.02078876979675 758.8012790585377 357.0799510883852L758.8012790585377 357.0799510883852Q761.5096923562819 359.15448042282753 762.4317053938119 361.74764209088045Q763.3825313387646 364.34080375893336 762.6622086531943 366.73227507502656Q761.9130730602012 369.1237463911198 760.1554857074098 370.6796433919516Q758.3978983546184 372.2355403927833 755.9199883162566 372.2355403927833Q753.4132653704722 372.2355403927833 750.3014713688087 370.161011058341L750.3014713688087 370.161011058341Q742.8389283463009 364.1391134069737 733.9069270452298 361.22900975726986Q725.0037386515814 358.318906107566 714.6310919793698 358.318906107566L714.6310919793698 358.318906107566Q698.2365476557909 358.318906107566 686.8266363163582 365.26281679646326Q675.4167249769254 372.2355403927833 669.5965176775177 385.48947780727593Q663.8051232855329 398.77222812919143 663.8051232855329 417.644682491132L663.8051232855329 417.644682491132Q663.8051232855329 436.54594976049543 669.5965176775177 449.9151388046793Q675.4167249769254 463.2843278488632 686.8266363163582 470.25705144518327Q698.2365476557909 477.2009621340805 714.6310919793698 477.2009621340805L714.6310919793698 477.2009621340805Q724.8020482996218 477.2009621340805 733.9069270452298 474.17560685468544Q743.0406186982606 471.17906448271316 750.7336649801509 465.1571668313458L750.7336649801509 465.1571668313458Q753.8454589818143 463.0826374969035 756.3233690201761 463.19788912659476Q758.8012790585377 463.2843278488632 760.4724276890607 464.7537861274265Q762.1435763195836 466.194431498567 762.8638990051539 468.470651184969Q763.5842216907242 470.7756837787938 762.8638990051539 473.2535938171555Q762.1435763195836 475.73150385551713 759.6368533737992 477.6043428379998L759.6368533737992 477.6043428379998Q750.9353553321106 485.0668858605076 739.2085020110269 488.9278154551642Q727.4816486899431 492.7599321423979 714.1988983680277 492.7599321423979ZM796.5750006898418 492.3277385310558L796.5750006898418 492.3277385310558Q792.4259420209571 492.3277385310558 790.3514126865148 490.0515188446538Q788.2768833520724 487.77529915825176 788.2768833520724 483.6262404893671L788.2768833520724 483.6262404893671L788.2768833520724 351.6919374003197Q788.2768833520724 347.54287873143505 790.3514126865148 345.3530977673015Q792.4259420209571 343.19212971059073 796.5750006898418 343.19212971059073L796.5750006898418 343.19212971059073Q800.5223690067667 343.19212971059073 802.7985886931688 345.3530977673015Q805.0748083795708 347.54287873143505 805.0748083795708 351.6919374003197L805.0748083795708 351.6919374003197L805.0748083795708 412.4583591550262L802.3663950818266 412.4583591550262Q806.7459570100937 400.4433767597144 816.5999713486947 394.30622747865584Q826.4539856872958 388.1978911050201 839.3045423978691 388.1978911050201L839.3045423978691 388.1978911050201Q851.3483377006037 388.1978911050201 859.3295130567221 392.54864012586444Q867.3106884128405 396.89938914670876 871.2580567297655 405.7161388180886Q875.2054250466904 414.5328884894685 875.2054250466904 428.0173291633436L875.2054250466904 428.0173291633436L875.2054250466904 483.6262404893671Q875.2054250466904 487.77529915825176 873.015644082557 490.0515188446538Q870.8258631184233 492.3277385310558 866.9073077089212 492.3277385310558L866.9073077089212 492.3277385310558Q862.7582490400365 492.3277385310558 860.568468075903 490.0515188446538Q858.3786871117694 487.77529915825176 858.3786871117694 483.6262404893671L858.3786871117694 483.6262404893671L858.3786871117694 429.0545938305648Q858.3786871117694 414.96508210081066 852.9042347014355 408.4245521158328Q847.4009693836788 401.8840221308549 835.3571740809441 401.8840221308549L835.3571740809441 401.8840221308549Q821.4693527031496 401.8840221308549 813.2576740876488 410.4990814502751Q805.0748083795708 419.1141407696953 805.0748083795708 433.43415575883193L805.0748083795708 433.43415575883193L805.0748083795708 483.6262404893671Q805.0748083795708 492.3277385310558 796.5750006898418 492.3277385310558ZM937.8446857838796 492.7599321423979L937.8446857838796 492.7599321423979Q927.472039111668 492.7599321423979 919.2891734035899 488.69731219578165Q911.077494788089 484.6635051565883 906.3233650633254 477.6043428379998Q901.5404224311388 470.5451805194113 901.5404224311388 461.84368247772267L901.5404224311388 461.84368247772267Q901.5404224311388 450.63546149024955 907.2453781008553 444.2101831349629Q912.9503337705717 437.78490477967625 926.1178324627958 435.0764914819321Q939.28533115502 432.39689109161077 962.1051538338857 432.39689109161077L962.1051538338857 432.39689109161077L971.4405358388761 432.39689109161077L971.4405358388761 443.37460881970145L962.3356570932681 443.37460881970145Q945.508919158347 443.37460881970145 935.8854080791284 444.93050582053314Q926.2330840924872 446.48640282136495 922.4009674052534 450.2320807863302Q918.5400378105969 453.9489458438727 918.5400378105969 460.8064178105015L918.5400378105969 460.8064178105015Q918.5400378105969 469.3062255002305 924.4754967396957 474.69423918829597Q930.3821427613718 480.1110657837843 940.5530990816237 480.1110657837843L940.5530990816237 480.1110657837843Q948.851216419393 480.1110657837843 955.1612431449885 476.16369746685933Q961.5000827780066 472.2163291499343 965.1305091132807 465.35885718330553Q968.7609354485548 458.5301981240995 968.7609354485548 449.5981968230284L968.7609354485548 449.5981968230284L968.7609354485548 425.9427998289013Q968.7609354485548 413.092243118328 963.5746121124489 407.38728744861163Q958.3882887763432 401.6823317788952 946.5461838255683 401.6823317788952L946.5461838255683 401.6823317788952Q939.28533115502 401.6823317788952 932.024478484472 403.5551707613779Q924.7636258139238 405.4280097438605 916.696011735537 409.5770684127452L916.696011735537 409.5770684127452Q913.7859080858332 411.0177137838857 911.7113787513908 410.4990814502751Q909.6368494169485 409.98044911666454 908.3978943977677 408.3093004861415Q907.130126471164 406.66696476304134 906.9284361192044 404.4771837989078Q906.7267457672447 402.3162157421971 907.879262064157 400.24168640775474Q909.0029654536468 398.1671570733124 911.5096883994312 396.89938914670876L911.5096883994312 396.89938914670876Q920.6145671450391 392.3469497739047 929.5465684461103 390.2724204394624Q938.4785697471814 388.1978911050201 946.5461838255683 388.1978911050201L946.5461838255683 388.1978911050201Q959.627243795524 388.1978911050201 968.127051485253 392.462201403596Q976.626859174982 396.6976987947491 980.7759178438666 405.3127581141693Q984.9249765127513 413.9278174335895 984.9249765127513 427.41225810746465L984.9249765127513 427.41225810746465L984.9249765127513 483.6262404893671Q984.9249765127513 487.77529915825176 982.9656988080001 490.0515188446538Q981.0064211032491 492.3277385310558 977.2607431382837 492.3277385310558L977.2607431382837 492.3277385310558Q973.3133748213588 492.3277385310558 971.2388454869165 490.0515188446538Q969.1643161524742 487.77529915825176 969.1643161524742 483.6262404893671L969.1643161524742 483.6262404893671L969.1643161524742 467.4333865177478L971.0371551349567 467.4333865177478Q969.3660065044338 475.3281231515978 964.6983155019386 480.91782719162296Q960.0306244994433 486.53634413907093 953.2019654402374 489.6481381407344Q946.3444934736085 492.7599321423979 937.8446857838796 492.7599321423979ZM1056.4962385510116 492.7599321423979L1056.4962385510116 492.7599321423979Q1044.6829465076594 492.7599321423979 1036.701771151541 488.495621843822Q1028.7205957954225 484.2601244526689 1024.7732274784976 476.04844583716806Q1020.8258591615727 467.86558012909 1020.8258591615727 456.02347517831504L1020.8258591615727 456.02347517831504L1020.8258591615727 403.12297715003575L1006.9380377837781 403.12297715003575Q1003.3940501707725 403.12297715003575 1001.52121118829 401.3653897972443Q999.67718511323 399.6078024444529 999.67718511323 396.49600844278945L999.67718511323 396.49600844278945Q999.67718511323 393.3842144411259 1001.52121118829 391.7130658106029Q1003.3940501707725 390.07073008750274 1006.9380377837781 390.07073008750274L1006.9380377837781 390.07073008750274L1020.8258591615727 390.07073008750274L1020.8258591615727 366.213642741416Q1020.8258591615727 362.0645840725314 1023.1020788479746 359.87480310839777Q1025.3782985343767 357.71383505168706 1029.3256668513015 357.71383505168706L1029.3256668513015 357.71383505168706Q1033.2730351682267 357.71383505168706 1035.46281613236 359.87480310839777Q1037.6237841890709 362.0645840725314 1037.6237841890709 366.213642741416L1037.6237841890709 366.213642741416L1037.6237841890709 390.07073008750274L1063.7570912215597 390.07073008750274Q1067.3010788345653 390.07073008750274 1069.1739178170478 391.7130658106029Q1071.0179438921077 393.3842144411259 1071.0179438921077 396.49600844278945L1071.0179438921077 396.49600844278945Q1071.0179438921077 399.6078024444529 1069.1739178170478 401.3653897972443Q1067.3010788345653 403.12297715003575 1063.7570912215597 403.12297715003575L1063.7570912215597 403.12297715003575L1037.6237841890709 403.12297715003575L1037.6237841890709 454.38113945521485Q1037.6237841890709 466.194431498567 1042.608417173217 472.33158077962554Q1047.5930501573632 478.4399171532613 1058.8012711448364 478.4399171532613L1058.8012711448364 478.4399171532613Q1062.7198265543384 478.4399171532613 1065.5434914817738 477.6043428379998Q1068.3383435017863 476.7687685227383 1070.211182484269 476.7687685227383L1070.211182484269 476.7687685227383Q1072.055208559329 476.56707817077864 1073.3229764859327 478.03653644934195Q1074.5619315051133 479.4771818204825 1074.5619315051133 482.9923565260653L1074.5619315051133 482.9923565260653Q1074.5619315051133 485.49907947184977 1073.6111055601607 487.5736088062921Q1072.6890925226307 489.6481381407344 1070.4128728362289 490.4837124559959L1070.4128728362289 490.4837124559959Q1067.9061498904443 491.2904738638346 1063.8723428512508 492.0396094568277Q1059.8385358120574 492.7599321423979 1056.4962385510116 492.7599321423979ZM1099.4562835184213 492.3277385310558L1099.4562835184213 492.3277385310558Q1095.3072248495369 492.3277385310558 1093.1174438854032 489.96508012238536Q1090.9564758286924 487.5736088062921 1090.9564758286924 483.4245501374074L1090.9564758286924 483.4245501374074L1090.9564758286924 353.3342731234199Q1090.9564758286924 348.9835241025756 1093.2326955150943 346.8225560458648Q1095.5089152014964 344.63277508173127 1099.657973870381 344.63277508173127L1099.657973870381 344.63277508173127L1148.812793933695 344.63277508173127Q1172.2665005758624 344.63277508173127 1184.915366934476 355.6393057172447Q1197.5642332930897 366.61702344533535 1197.5642332930897 386.9589360858393L1197.5642332930897 386.9589360858393Q1197.5642332930897 399.80949279641254 1191.8592776233731 409.2601264310943Q1186.154321953657 418.6819471583532 1175.1766042255663 423.58014142023086Q1164.1700735900527 428.4495227746858 1148.812793933695 428.4495227746858L1148.812793933695 428.4495227746858L1150.8873232681374 425.74110947694163L1155.0363819370218 425.74110947694163Q1163.1328089228316 425.74110947694163 1169.1547065741988 429.8901681458263Q1175.1766042255663 434.03922681471096 1180.1612372097125 443.17291846774174L1180.1612372097125 443.17291846774174L1200.0709562388743 480.31275613574394Q1201.7132919619744 483.2228597854478 1201.6268532397057 486.01771180546035Q1201.5116016100146 488.8125638254729 1199.6387626275318 490.5701511782643Q1197.7947365524722 492.3277385310558 1194.2507489394666 492.3277385310558L1194.2507489394666 492.3277385310558Q1190.7355742338837 492.3277385310558 1188.4593545474818 490.68540280795554Q1186.154321953657 489.01425417743263 1184.5119862305567 485.90246017576914L1184.5119862305567 485.90246017576914L1161.8938539036508 444.00849278300325Q1157.1109112714644 435.0764914819321 1150.8873232681374 432.07994910995984Q1144.6637352648104 429.0545938305648 1134.5215918519812 429.0545938305648L1134.5215918519812 429.0545938305648L1107.9560912081502 429.0545938305648L1107.9560912081502 483.4245501374074Q1107.9560912081502 487.5736088062921 1105.881561873708 489.96508012238536Q1103.8070325392657 492.3277385310558 1099.4562835184213 492.3277385310558ZM1107.9560912081502 358.7510997189082L1107.9560912081502 415.5701531566897L1146.3348838953334 415.5701531566897Q1163.3344992747911 415.5701531566897 1172.0648102239027 408.4245521158328Q1180.7663082655913 401.27895107497585 1180.7663082655913 386.9589360858393L1180.7663082655913 386.9589360858393Q1180.7663082655913 373.042301800622 1172.0648102239027 365.89670075976505Q1163.3344992747911 358.7510997189082 1146.3348838953334 358.7510997189082L1146.3348838953334 358.7510997189082L1107.9560912081502 358.7510997189082ZM1267.0609659969075 492.7599321423979L1267.0609659969075 492.7599321423979Q1252.3375703038516 492.7599321423979 1241.5615429277207 486.3346537871112Q1230.7567026441668 479.8805625244018 1224.8500566224907 468.1825221107409Q1218.9434106008148 456.4556687896572 1218.9434106008148 440.4645051699976L1218.9434106008148 440.4645051699976Q1218.9434106008148 428.4495227746858 1222.256894954438 418.7971987880444Q1225.570379308061 409.14487480140303 1232.0244705707705 402.3162157421971Q1238.449748926057 395.4587437755683 1247.266498597437 391.82831744029414Q1256.083248268817 388.1978911050201 1267.0609659969075 388.1978911050201L1267.0609659969075 388.1978911050201Q1281.8131745973863 388.1978911050201 1292.5892019735172 394.62316946030677Q1303.3652293496482 401.0484478155934 1309.3006882787472 412.7753011366771Q1315.2073343004233 424.5021544577608 1315.2073343004233 440.4645051699976L1315.2073343004233 440.4645051699976Q1315.2073343004233 452.50830047273223 1311.8938499468002 462.0453728296823Q1308.5515526857541 471.58244518663247 1302.1262743304676 478.55516878295253Q1295.7009959751808 485.49907947184977 1286.8842463038009 489.12950580712385Q1278.0674966324211 492.7599321423979 1267.0609659969075 492.7599321423979ZM1267.0609659969075 479.2754914685228L1267.0609659969075 479.2754914685228Q1276.396348001898 479.2754914685228 1283.4555103204864 474.69423918829597Q1290.5146726390751 470.141799815492 1294.3467893263087 461.44030177380336Q1298.1789060135425 452.7099908246919 1298.1789060135425 440.4645051699976L1298.1789060135425 440.4645051699976Q1298.1789060135425 421.59205080805697 1289.7943499535047 411.6515977471875Q1281.3809809860443 401.6823317788952 1267.0609659969075 401.6823317788952L1267.0609659969075 401.6823317788952Q1257.5238936399576 401.6823317788952 1250.5799829510602 406.1483324294308Q1243.636072262163 410.61433307996634 1239.8039555749292 419.20057949196377Q1235.9430259802728 427.81563881138396 1235.9430259802728 440.4645051699976L1235.9430259802728 440.4645051699976Q1235.9430259802728 459.13526917997854 1244.4716465774245 469.2197867779621Q1252.9714542671534 479.2754914685228 1267.0609659969075 479.2754914685228ZM1382.427847317839 492.7599321423979L1382.427847317839 492.7599321423979Q1367.6756387173602 492.7599321423979 1356.8996113412295 486.3346537871112Q1346.1235839650983 479.8805625244018 1340.1881250359995 468.1825221107409Q1334.2814790143236 456.4556687896572 1334.2814790143236 440.4645051699976L1334.2814790143236 440.4645051699976Q1334.2814790143236 428.4495227746858 1337.5949633679468 418.7971987880444Q1340.9372606289928 409.14487480140303 1347.3625389842794 402.3162157421971Q1353.787817339566 395.4587437755683 1362.6045670109459 391.82831744029414Q1371.4213166823258 388.1978911050201 1382.427847317839 388.1978911050201L1382.427847317839 388.1978911050201Q1397.151243010895 388.1978911050201 1407.927270387026 394.62316946030677Q1418.73211067058 401.0484478155934 1424.638756692256 412.7753011366771Q1430.545402713932 424.5021544577608 1430.545402713932 440.4645051699976L1430.545402713932 440.4645051699976Q1430.545402713932 452.50830047273223 1427.2319183603088 462.0453728296823Q1423.9184340066856 471.58244518663247 1417.4643427439762 478.55516878295253Q1411.0390643886897 485.49907947184977 1402.2223147173097 489.12950580712385Q1393.4055650459297 492.7599321423979 1382.427847317839 492.7599321423979ZM1382.427847317839 479.2754914685228L1382.427847317839 479.2754914685228Q1391.7632293228296 479.2754914685228 1398.7935787339952 474.69423918829597Q1405.8527410525837 470.141799815492 1409.6848577398175 461.44030177380336Q1413.5457873344742 452.7099908246919 1413.5457873344742 440.4645051699976L1413.5457873344742 440.4645051699976Q1413.5457873344742 421.59205080805697 1405.1324183670133 411.6515977471875Q1396.719049399553 401.6823317788952 1382.427847317839 401.6823317788952L1382.427847317839 401.6823317788952Q1372.8619620534662 401.6823317788952 1365.918051364569 406.1483324294308Q1358.9741406756718 410.61433307996634 1355.142023988438 419.20057949196377Q1351.3099073012042 427.81563881138396 1351.3099073012042 440.4645051699976L1351.3099073012042 440.4645051699976Q1351.3099073012042 459.13526917997854 1359.8097149909333 469.2197867779621Q1368.3095226806622 479.2754914685228 1382.427847317839 479.2754914685228ZM1464.5734463802708 492.3277385310558L1464.5734463802708 492.3277385310558Q1460.424387711386 492.3277385310558 1458.3498583769438 490.0515188446538Q1456.2753290425014 487.77529915825176 1456.2753290425014 483.6262404893671L1456.2753290425014 483.6262404893671L1456.2753290425014 397.12989240609124Q1456.2753290425014 392.9808337372066 1458.3498583769438 390.791052773073Q1460.424387711386 388.60127180893943 1464.371756028311 388.60127180893943L1464.371756028311 388.60127180893943Q1468.290311437813 388.60127180893943 1470.4800924019466 390.791052773073Q1472.6698733660803 392.9808337372066 1472.6698733660803 397.12989240609124L1472.6698733660803 397.12989240609124L1472.6698733660803 415.36846280473003L1470.3648407722555 412.4583591550262Q1474.3122090891804 400.8467574636337 1483.1289587605604 394.53673073803833Q1491.9457084319401 388.1978911050201 1504.1911940866346 388.1978911050201L1504.1911940866346 388.1978911050201Q1517.041750797208 388.1978911050201 1525.051739060749 394.30622747865584Q1533.0329144168675 400.4433767597144 1535.7125148071889 413.2939334702877L1535.7125148071889 413.2939334702877L1532.6007208055255 413.2939334702877Q1536.3463987704906 401.6823317788952 1545.998722757132 394.94011144195764Q1555.6510467437733 388.1978911050201 1568.5016034543467 388.1978911050201L1568.5016034543467 388.1978911050201Q1579.9115147937796 388.1978911050201 1587.287619094019 392.54864012586444Q1594.6349104868357 396.89938914670876 1598.3805884518008 405.7161388180886Q1602.097453509343 414.5328884894685 1602.097453509343 428.0173291633436L1602.097453509343 428.0173291633436L1602.097453509343 483.6262404893671Q1602.097453509343 487.77529915825176 1599.9364854526325 490.0515188446538Q1597.746704488499 492.3277385310558 1593.5976458196144 492.3277385310558L1593.5976458196144 492.3277385310558Q1589.6502775026893 492.3277385310558 1587.4893094459787 490.0515188446538Q1585.299528481845 487.77529915825176 1585.299528481845 483.6262404893671L1585.299528481845 483.6262404893671L1585.299528481845 428.8529034786051Q1585.299528481845 414.96508210081066 1580.545398757081 408.4245521158328Q1575.7624561248947 401.8840221308549 1564.352544785462 401.8840221308549L1564.352544785462 401.8840221308549Q1551.905368778808 401.8840221308549 1544.759767737951 410.4990814502751Q1537.5853537896714 419.1141407696953 1537.5853537896714 433.8375364627513L1537.5853537896714 433.8375364627513L1537.5853537896714 483.6262404893671Q1537.5853537896714 487.77529915825176 1535.424385732961 490.0515188446538Q1533.2346047688272 492.3277385310558 1529.0855460999426 492.3277385310558L1529.0855460999426 492.3277385310558Q1525.1381777830177 492.3277385310558 1522.977209726307 490.0515188446538Q1520.7874287621732 487.77529915825176 1520.7874287621732 483.6262404893671L1520.7874287621732 483.6262404893671L1520.7874287621732 428.8529034786051Q1520.7874287621732 414.96508210081066 1515.9180474077184 408.4245521158328Q1511.0486660532633 401.8840221308549 1499.8404450657902 401.8840221308549L1499.8404450657902 401.8840221308549Q1487.3932690591364 401.8840221308549 1480.2188551108563 410.4990814502751Q1473.0732540699998 419.1141407696953 1473.0732540699998 433.8375364627513L1473.0732540699998 433.8375364627513L1473.0732540699998 483.6262404893671Q1473.0732540699998 492.3277385310558 1464.5734463802708 492.3277385310558Z " fill="#8aaae5" transform="matrix(0.5461590149439026,0,0,0.5461590149439027,0,71.83663318042258)"/></g></svg>